<?xml version="1.0" standalone="no"?>
<!DOCTYPE svg PUBLIC "-//W3C//DTD SVG 1.0//EN" "http://www.w3.org/TR/2001/REC-SVG-20010904/DTD/svg10.dtd">
<svg xmlns="http://www.w3.org/2000/svg" xmlns:xlink="http://www.w3.org/1999/xlink" id="body_1" width="106" height="22">

<g transform="matrix(0.5 0 0 0.5 0 0)">
    <path d="M0 8C 0 3.581722 3.581722 0 8 0L8 0L204 0C 208.41827 0 212 3.581722 212 8L212 8L212 36C 212 40.418278 208.41827 44 204 44L204 44L8 44C 3.581722 44 0 40.418278 0 36L0 36L0 8z" stroke="none" fill="#000000" fill-rule="nonzero" />
    <path d="M60.4375 15.2266L60.4375 26.5L61.8438 26.5L61.8438 22.4766L64.6797 22.4766C 66.7969 22.4766 68.3047 20.9844 68.3047 18.875C 68.3047 16.7266 66.8281 15.2266 64.6953 15.2266L64.6953 15.2266L60.4375 15.2266zM61.8438 16.4766L64.3281 16.4766C 65.9609 16.4766 66.8594 17.3281 66.8594 18.875C 66.8594 20.3672 65.9297 21.2266 64.3281 21.2266L64.3281 21.2266L61.8438 21.2266L61.8438 16.4766zM73.3441 26.6484C 75.7425 26.6484 77.2269 24.9922 77.2269 22.2891C 77.2269 19.5781 75.7425 17.9297 73.3441 17.9297C 70.9456 17.9297 69.4613 19.5781 69.4613 22.2891C 69.4613 24.9922 70.9456 26.6484 73.3441 26.6484zM73.3441 25.4375C 71.7503 25.4375 70.8519 24.2812 70.8519 22.2891C 70.8519 20.2891 71.7503 19.1406 73.3441 19.1406C 74.9378 19.1406 75.8363 20.2891 75.8363 22.2891C 75.8363 24.2812 74.9378 25.4375 73.3441 25.4375zM89.2975 18.0781L87.9459 18.0781L86.2897 24.8125L86.1647 24.8125L84.2819 18.0781L82.9928 18.0781L81.11 24.8125L80.985 24.8125L79.3288 18.0781L77.9694 18.0781L80.3288 26.5L81.6881 26.5L83.5631 19.9844L83.6881 19.9844L85.5709 26.5L86.9381 26.5L89.2975 18.0781zM93.8213 19.1172C 95.1572 19.1172 96.0478 20.1016 96.0791 21.5938L96.0791 21.5938L91.4384 21.5938C 91.54 20.1016 92.4775 19.1172 93.8213 19.1172zM96.04 24.3203C 95.6884 25.0625 94.9541 25.4609 93.8681 25.4609C 92.4384 25.4609 91.5088 24.4062 91.4384 22.7422L91.4384 22.7422L91.4384 22.6797L97.4931 22.6797L97.4931 22.1641C 97.4931 19.5469 96.1103 17.9297 93.8369 17.9297C 91.5244 17.9297 90.04 19.6484 90.04 22.2969C 90.04 24.9609 91.5009 26.6484 93.8369 26.6484C 95.6806 26.6484 96.9931 25.7578 97.3838 24.3203L97.3838 24.3203L96.04 24.3203zM99.2825 26.5L100.626 26.5L100.626 21.2812C 100.626 20.0938 101.556 19.2344 102.837 19.2344C 103.103 19.2344 103.587 19.2812 103.697 19.3125L103.697 19.3125L103.697 17.9688C 103.525 17.9453 103.243 17.9297 103.025 17.9297C 101.908 17.9297 100.939 18.5078 100.689 19.3281L100.689 19.3281L100.564 19.3281L100.564 18.0781L99.2825 18.0781L99.2825 26.5zM108.181 19.1172C 109.517 19.1172 110.408 20.1016 110.439 21.5938L110.439 21.5938L105.798 21.5938C 105.9 20.1016 106.838 19.1172 108.181 19.1172zM110.4 24.3203C 110.048 25.0625 109.314 25.4609 108.228 25.4609C 106.798 25.4609 105.869 24.4062 105.798 22.7422L105.798 22.7422L105.798 22.6797L111.853 22.6797L111.853 22.1641C 111.853 19.5469 110.47 17.9297 108.197 17.9297C 105.884 17.9297 104.4 19.6484 104.4 22.2969C 104.4 24.9609 105.861 26.6484 108.197 26.6484C 110.041 26.6484 111.353 25.7578 111.744 24.3203L111.744 24.3203L110.4 24.3203zM116.76 26.6484C 117.924 26.6484 118.924 26.0938 119.455 25.1562L119.455 25.1562L119.58 25.1562L119.58 26.5L120.861 26.5L120.861 14.7344L119.518 14.7344L119.518 19.4062L119.4 19.4062C 118.924 18.4844 117.932 17.9297 116.76 17.9297C 114.619 17.9297 113.221 19.6484 113.221 22.2891C 113.221 24.9375 114.603 26.6484 116.76 26.6484zM117.072 19.1406C 118.596 19.1406 119.549 20.3594 119.549 22.2891C 119.549 24.2344 118.603 25.4375 117.072 25.4375C 115.533 25.4375 114.611 24.2578 114.611 22.2891C 114.611 20.3281 115.541 19.1406 117.072 19.1406zM131.534 26.6484C 133.667 26.6484 135.065 24.9219 135.065 22.2891C 135.065 19.6406 133.674 17.9297 131.534 17.9297C 130.378 17.9297 129.354 18.5 128.893 19.4062L128.893 19.4062L128.768 19.4062L128.768 14.7344L127.424 14.7344L127.424 26.5L128.706 26.5L128.706 25.1562L128.831 25.1562C 129.362 26.0938 130.362 26.6484 131.534 26.6484zM131.221 19.1406C 132.76 19.1406 133.674 20.3203 133.674 22.2891C 133.674 24.2578 132.76 25.4375 131.221 25.4375C 129.69 25.4375 128.737 24.2344 128.737 22.2891C 128.737 20.3438 129.69 19.1406 131.221 19.1406zM137.261 29.5469C 138.753 29.5469 139.425 28.9688 140.143 27.0156L140.143 27.0156L143.433 18.0781L142.003 18.0781L139.698 25.0078L139.573 25.0078L137.261 18.0781L135.808 18.0781L138.925 26.5078L138.768 27.0078C 138.417 28.0234 137.995 28.3906 137.222 28.3906C 137.034 28.3906 136.823 28.3828 136.659 28.3516L136.659 28.3516L136.659 29.5C 136.847 29.5312 137.081 29.5469 137.261 29.5469zM154.652 26.5L158.55 15.2266L156.402 15.2266L153.589 24.1484L153.457 24.1484L150.621 15.2266L148.394 15.2266L152.332 26.5L154.652 26.5zM162.668 19.3203C 163.832 19.3203 164.598 20.1328 164.637 21.3984L164.637 21.3984L160.613 21.3984C 160.699 20.1484 161.512 19.3203 162.668 19.3203zM164.652 24.1484C 164.371 24.7812 163.707 25.1328 162.746 25.1328C 161.473 25.1328 160.652 24.2422 160.605 22.8203L160.605 22.8203L160.605 22.7188L166.574 22.7188L166.574 22.0938C 166.574 19.3984 165.113 17.7812 162.676 17.7812C 160.199 17.7812 158.66 19.5078 158.66 22.2578C 158.66 25.0078 160.176 26.6719 162.691 26.6719C 164.707 26.6719 166.137 25.7031 166.488 24.1484L166.488 24.1484L164.652 24.1484zM168.199 26.5L170.137 26.5L170.137 21.5625C 170.137 20.3672 171.012 19.5859 172.27 19.5859C 172.598 19.5859 173.113 19.6406 173.262 19.6953L173.262 19.6953L173.262 17.8984C 173.082 17.8438 172.738 17.8125 172.457 17.8125C 171.356 17.8125 170.434 18.4375 170.199 19.2812L170.199 19.2812L170.067 19.2812L170.067 17.9531L168.199 17.9531L168.199 26.5zM181.7 20.8281C 181.497 19.0312 180.168 17.7812 177.973 17.7812C 175.403 17.7812 173.895 19.4297 173.895 22.2031C 173.895 25.0156 175.411 26.6719 177.981 26.6719C 180.145 26.6719 181.489 25.4688 181.7 23.6797L181.7 23.6797L179.856 23.6797C 179.653 24.5703 178.981 25.0469 177.973 25.0469C 176.653 25.0469 175.856 24 175.856 22.2031C 175.856 20.4297 176.645 19.4062 177.973 19.4062C 179.036 19.4062 179.676 20 179.856 20.8281L179.856 20.8281L181.7 20.8281zM186.817 19.3203C 187.981 19.3203 188.747 20.1328 188.786 21.3984L188.786 21.3984L184.762 21.3984C 184.848 20.1484 185.661 19.3203 186.817 19.3203zM188.802 24.1484C 188.52 24.7812 187.856 25.1328 186.895 25.1328C 185.622 25.1328 184.802 24.2422 184.755 22.8203L184.755 22.8203L184.755 22.7188L190.723 22.7188L190.723 22.0938C 190.723 19.3984 189.262 17.7812 186.825 17.7812C 184.348 17.7812 182.809 19.5078 182.809 22.2578C 182.809 25.0078 184.325 26.6719 186.841 26.6719C 188.856 26.6719 190.286 25.7031 190.637 24.1484L190.637 24.1484L188.802 24.1484zM192.427 26.5L194.364 26.5L194.364 14.6484L192.427 14.6484L192.427 26.5z" stroke="none" fill="#FFFFFF" fill-rule="nonzero" />
    <path d="M23.3248 13L32.6497 29L14 29L23.3248 13z" stroke="none" fill="#FFFFFF" fill-rule="nonzero" />
    <path d="M43.5 2.18557E-08L43.5 44" stroke="#5E5E5E" stroke-width="1" fill="none" />
</g>
</svg>