<?xml version="1.0" standalone="no"?>
<!DOCTYPE svg PUBLIC "-//W3C//DTD SVG 1.0//EN" "http://www.w3.org/TR/2001/REC-SVG-20010904/DTD/svg10.dtd">
<svg xmlns="http://www.w3.org/2000/svg" xmlns:xlink="http://www.w3.org/1999/xlink" id="body_1" width="85" height="19">

<g transform="matrix(0.39583334 0 0 0.39583334 0.54166764 -0)">
	<g>
        <path d="M105.65625 12C 97.38672 12 91.421875 17.398438 91.421875 25.5C 91.421875 33.601562 98.13281 39 106.40625 39C 111.40234 39 115.80469 37.01953 118.53125 33.683594L118.53125 33.683594L112.80078 30.367188C 111.28906 32.023438 108.98828 32.992188 106.40625 32.992188C 102.81641 32.992188 99.765625 31.117188 98.63672 28.117188L98.63672 28.117188L119.625 28.117188C 119.79297 27.277344 119.88672 26.40625 119.88672 25.492188C 119.88672 17.398438 113.92578 12 105.65625 12zM98.57031 22.875C 99.50391 19.882812 102.06641 18 105.64844 18C 109.234375 18 111.796875 19.882812 112.72656 22.875zM186.32031 12C 178.05078 12 172.08594 17.398438 172.08594 25.5C 172.08594 33.601562 178.80078 39 187.07031 39C 192.0664 39 196.47266 37.01953 199.19922 33.683594L199.19922 33.683594L193.46875 30.367188C 191.95312 32.023438 189.65234 32.992188 187.07031 32.992188C 183.48047 32.992188 180.4336 31.117188 179.30078 28.117188L179.30078 28.117188L200.29297 28.117188C 200.45703 27.277344 200.55469 26.40625 200.55469 25.492188C 200.55469 17.398438 194.58984 12 186.32031 12zM179.24219 22.875C 180.17578 19.882812 182.73828 18 186.32031 18C 189.91016 18 192.46875 19.882812 193.39844 22.875zM150.0039 25.5C 150.0039 30 152.9414 33 157.4961 33C 160.58203 33 162.89453 31.597656 164.08594 29.308594L164.08594 29.308594L169.83984 32.632812C 167.45703 36.609375 162.99219 39 157.4961 39C 149.21484 39 143.26172 33.601562 143.26172 25.5C 143.26172 17.398438 149.22266 12 157.4961 12C 162.99219 12 167.44922 14.390625 169.83984 18.367188L169.83984 18.367188L164.08594 21.691406C 162.89453 19.402344 160.58203 18 157.4961 18C 152.94531 18 150.0039 21 150.0039 25.5zM211.78906 3.75L211.78906 38.25L205.04688 38.25L205.04688 3.75zM27.679688 0L55.359375 48L0 48zM96.88281 3.75L76.125 39.75L55.367188 3.75L63.152344 3.75L76.125 26.25L89.10156 3.75zM141.01562 12.75L141.01562 20.015625C 140.26562 19.800781 139.46875 19.648438 138.61719 19.648438C 134.26562 19.648438 131.125 22.648438 131.125 27.148438L131.125 27.148438L131.125 38.25L124.38281 38.25L124.38281 12.75L131.125 12.75L131.125 19.648438C 131.125 15.839844 135.55078 12.75 141.01562 12.75z" stroke="none" fill="#000000" fill-rule="nonzero" />
	</g>
</g>
</svg>